<?xml version="1.0" encoding="UTF-8" standalone="no"?>
<!-- Uploaded to: SVG Repo, www.svgrepo.com, Generator: SVG Repo Mixer Tools -->

<svg
   height="215"
   width="300"
   version="1.1"
   id="Capa_1"
   viewBox="0 0 192 137.6"
   xml:space="preserve"
   sodipodi:docname="credit-card.svg"
   inkscape:version="1.2.2 (732a01da63, 2022-12-09)"
   xmlns:inkscape="http://www.inkscape.org/namespaces/inkscape"
   xmlns:sodipodi="http://sodipodi.sourceforge.net/DTD/sodipodi-0.dtd"
   xmlns="http://www.w3.org/2000/svg"
   xmlns:svg="http://www.w3.org/2000/svg"><defs
   id="defs57" /><sodipodi:namedview
   id="namedview55"
   pagecolor="#ffffff"
   bordercolor="#000000"
   borderopacity="0.25"
   inkscape:showpageshadow="2"
   inkscape:pageopacity="0.0"
   inkscape:pagecheckerboard="0"
   inkscape:deskcolor="#d1d1d1"
   showgrid="false"
   inkscape:zoom="2.01"
   inkscape:cx="233.83085"
   inkscape:cy="194.27861"
   inkscape:window-width="1920"
   inkscape:window-height="991"
   inkscape:window-x="-9"
   inkscape:window-y="-9"
   inkscape:window-maximized="1"
   inkscape:current-layer="g365" />
<g
   id="g52">
	<g
   id="g4">
		
	</g>
	
	
	
	
	
	
	<g
   id="g365"
   transform="matrix(0.36815921,0,0,0.36837551,2.2288557,-25.528013)"><path
     style="fill:#5d647f"
     d="M 472,72 H 40 C 17.945,72 0,89.945 0,112 v 288 c 0,22.055 17.945,40 40,40 h 432 c 22.055,0 40,-17.945 40,-40 V 112 C 512,89.945 494.055,72 472,72 Z"
     id="path2" /><g
     id="g8">
		<path
   style="fill:#ffd100"
   d="M 176,232 H 80 c -8.837,0 -16,-7.163 -16,-16 v -64 c 0,-8.837 7.163,-16 16,-16 h 96 c 8.837,0 16,7.163 16,16 v 64 c 0,8.837 -7.163,16 -16,16 z"
   id="path6" />
	</g><g
     id="g32">
		<g
   id="g30">
			<path
   style="fill:#8a8895"
   d="M 232,384 H 72 c -4.422,0 -8,-3.582 -8,-8 0,-4.418 3.578,-8 8,-8 h 160 c 4.422,0 8,3.582 8,8 0,4.418 -3.578,8 -8,8 z"
   id="path28" />
		</g>
	</g><g
     id="g38">
		<g
   id="g36">
			<path
   style="fill:#8a8895"
   d="m 336,384 h -72 c -4.422,0 -8,-3.582 -8,-8 0,-4.418 3.578,-8 8,-8 h 72 c 4.422,0 8,3.582 8,8 0,4.418 -3.578,8 -8,8 z"
   id="path34" />
		</g>
	</g><g
     id="g42">
		<path
   style="fill:#ff4f19"
   d="M 368,216.002 C 359.211,225.821 346.439,232 332.224,232 c -26.51,0 -48,-21.49 -48,-48 0,-26.51 21.49,-48 48,-48 14.213,0 26.983,6.177 35.772,15.993"
   id="path40" />
	</g><g
     id="g46">
		<polygon
   style="fill:#ff9500"
   points="112,176 192,176 192,160 112,160 112,136 96,136 96,232 112,232 112,208 192,208 192,192 112,192 "
   id="polygon44" />
	</g><g
     id="g50">
		<circle
   style="fill:#ffd100"
   cx="400"
   cy="184"
   r="48"
   id="circle48" />
	</g></g>
</g>
</svg>
